<svg width="512" height="512" viewBox="0 0 512 512" fill="none" xmlns="http://www.w3.org/2000/svg">
<path d="M469.333 64H42.667C19.135 64 0 83.135 0 106.667V405.334C0 428.865 19.135 448 42.667 448H469.334C492.865 448 512 428.865 512 405.333V106.667C512 83.135 492.865 64 469.333 64ZM42.667 85.333H469.334C470.906 85.333 472.291 85.906 473.766 86.23C436.827 120.037 314.343 232.089 271.48 270.708C268.126 273.729 262.72 277.333 256.001 277.333C249.282 277.333 243.876 273.729 240.511 270.698C197.652 232.085 75.161 120.027 38.228 86.232C39.706 85.908 41.094 85.333 42.667 85.333ZM21.333 405.333V106.667C21.333 104.577 21.963 102.681 22.527 100.771C50.799 126.647 136.263 204.831 191.679 255.224C136.443 302.671 50.957 383.719 22.46 410.893C21.957 409.079 21.333 407.305 21.333 405.333ZM469.333 426.667H42.667C40.963 426.667 39.448 426.073 37.857 425.693C67.304 397.621 153.334 316.107 207.599 269.684C214.673 276.101 221.135 281.952 226.229 286.542C235.021 294.48 245.312 298.667 256 298.667C266.688 298.667 276.979 294.479 285.76 286.552C290.856 281.96 297.323 276.104 304.401 269.684C358.669 316.102 444.687 397.61 474.143 425.693C472.552 426.073 471.039 426.667 469.333 426.667ZM490.667 405.333C490.667 407.304 490.043 409.079 489.541 410.893C461.033 383.705 375.557 302.666 320.322 255.225C375.74 204.832 461.191 126.655 489.473 100.769C490.037 102.679 490.667 104.576 490.667 106.666V405.333V405.333Z" fill="#A8A8B3"/>
</svg>
