<svg width="50" height="50" viewBox="0 0 50 50" fill="none" xmlns="http://www.w3.org/2000/svg">
<g clip-path="url(#clip0)">
<path d="M18.4229 26.3563C15.5229 26.3563 13.1708 28.7083 13.1708 31.6083V44.7458C13.1708 47.6458 15.5229 49.9979 18.4229 49.9979C21.3229 49.9979 23.675 47.6458 23.675 44.7458V31.6083C23.6729 28.7083 21.3208 26.3563 18.4229 26.3563Z" fill="#E91E63"/>
<path d="M0.0395508 31.6083C0.0395508 34.5104 2.39372 36.8646 5.2958 36.8646C8.19788 36.8646 10.5521 34.5104 10.5521 31.6083V26.3521H5.29997C5.29788 26.3521 5.29788 26.3521 5.2958 26.3521C2.39372 26.3521 0.0395508 28.7062 0.0395508 31.6083V31.6083Z" fill="#E91E63"/>
<path d="M18.4292 -0.00228882C18.4271 -0.00228882 18.425 -0.00228882 18.4229 -0.00228882C15.5209 -0.00228882 13.1667 2.35188 13.1667 5.25396C13.1667 8.15604 15.5209 10.5102 18.4229 10.5102H23.675V5.25396C23.675 5.25188 23.675 5.24771 23.675 5.24354C23.6729 2.34563 21.325 -0.00228882 18.4292 -0.00228882V-0.00228882Z" fill="#00BCD4"/>
<path d="M5.26205 23.6875H18.4246C21.3266 23.6875 23.6808 21.3333 23.6808 18.4312C23.6808 15.5292 21.3266 13.175 18.4246 13.175H5.26205C2.35997 13.175 0.00579834 15.5292 0.00579834 18.4312C0.00579834 21.3333 2.35997 23.6875 5.26205 23.6875V23.6875Z" fill="#00BCD4"/>
<path d="M44.7021 13.1729C41.8042 13.1729 39.4562 15.5208 39.4562 18.4187V18.4292V23.6854H44.7083C47.6104 23.6854 49.9646 21.3312 49.9646 18.4292C49.9646 15.5271 47.6104 13.1729 44.7083 13.1729C44.7062 13.1729 44.7042 13.1729 44.7021 13.1729V13.1729Z" fill="#4CAF50"/>
<path d="M26.3354 5.25437V18.4315C26.3354 21.3315 28.6875 23.6835 31.5875 23.6835C34.4875 23.6835 36.8396 21.3315 36.8396 18.4315V5.25437C36.8396 2.35437 34.4875 0.00228882 31.5875 0.00228882C28.6875 0.00228882 26.3354 2.35437 26.3354 5.25437V5.25437Z" fill="#4CAF50"/>
<path d="M36.8391 44.7417C36.8391 41.8417 34.487 39.4896 31.587 39.4896H26.335V44.7458C26.337 47.6438 28.687 49.9938 31.587 49.9938C34.487 49.9938 36.8391 47.6417 36.8391 44.7417Z" fill="#FF9800"/>
<path d="M44.7479 26.3521H31.5854C28.6833 26.3521 26.3292 28.7062 26.3292 31.6083C26.3292 34.5104 28.6833 36.8646 31.5854 36.8646H44.7479C47.65 36.8646 50.0041 34.5104 50.0041 31.6083C50.0041 28.7062 47.65 26.3521 44.7479 26.3521V26.3521Z" fill="#FF9800"/>
</g>
<defs>
<clipPath id="clip0">
<rect width="50" height="50" fill="white"/>
</clipPath>
</defs>
</svg>
